<mxfile host="app.diagrams.net" modified="2020-11-18T11:52:58.457Z" agent="5.0 (Windows NT 10.0; Win64; x64) AppleWebKit/537.36 (KHTML, like Gecko) Chrome/86.0.4240.198 Safari/537.36" etag="Ff-w7VkQyVXF8sBlHaor" version="13.9.9" type="github">
  <diagram id="4UAzv0pZ_G8akfChZ6i3" name="Page-1">
    <mxGraphModel dx="898" dy="511" grid="1" gridSize="10" guides="1" tooltips="1" connect="1" arrows="1" fold="1" page="1" pageScale="1" pageWidth="827" pageHeight="1169" math="0" shadow="0">
      <root>
        <mxCell id="0" />
        <mxCell id="1" parent="0" />
        <mxCell id="DlLF5uZ7NsqH3WTy0vus-9" value="Анализ уже существующих данных в карте пациента" style="rounded=1;whiteSpace=wrap;html=1;" parent="1" vertex="1">
          <mxGeometry x="310" y="110" width="180" height="60" as="geometry" />
        </mxCell>
        <mxCell id="DlLF5uZ7NsqH3WTy0vus-13" value="" style="rhombus;whiteSpace=wrap;html=1;" parent="1" vertex="1">
          <mxGeometry x="385" y="190" width="30" height="30" as="geometry" />
        </mxCell>
        <mxCell id="DlLF5uZ7NsqH3WTy0vus-14" value="" style="endArrow=classic;html=1;exitX=0.5;exitY=1;exitDx=0;exitDy=0;entryX=0.5;entryY=0;entryDx=0;entryDy=0;" parent="1" source="DlLF5uZ7NsqH3WTy0vus-9" target="DlLF5uZ7NsqH3WTy0vus-13" edge="1">
          <mxGeometry width="50" height="50" relative="1" as="geometry">
            <mxPoint x="390" y="260" as="sourcePoint" />
            <mxPoint x="440" y="210" as="targetPoint" />
          </mxGeometry>
        </mxCell>
        <mxCell id="DlLF5uZ7NsqH3WTy0vus-18" value="" style="endArrow=classic;html=1;entryX=0.5;entryY=0;entryDx=0;entryDy=0;exitX=1;exitY=0.5;exitDx=0;exitDy=0;edgeStyle=orthogonalEdgeStyle;" parent="1" source="DlLF5uZ7NsqH3WTy0vus-13" target="DlLF5uZ7NsqH3WTy0vus-22" edge="1">
          <mxGeometry width="50" height="50" relative="1" as="geometry">
            <mxPoint x="390" y="250" as="sourcePoint" />
            <mxPoint x="570" y="205" as="targetPoint" />
          </mxGeometry>
        </mxCell>
        <mxCell id="DlLF5uZ7NsqH3WTy0vus-19" value="" style="endArrow=classic;html=1;exitX=0.5;exitY=1;exitDx=0;exitDy=0;entryX=0.5;entryY=0;entryDx=0;entryDy=0;" parent="1" source="DlLF5uZ7NsqH3WTy0vus-13" target="DlLF5uZ7NsqH3WTy0vus-26" edge="1">
          <mxGeometry width="50" height="50" relative="1" as="geometry">
            <mxPoint x="390" y="250" as="sourcePoint" />
            <mxPoint x="400" y="240" as="targetPoint" />
          </mxGeometry>
        </mxCell>
        <mxCell id="DlLF5uZ7NsqH3WTy0vus-22" value="Внести новые данные в карту" style="rounded=1;whiteSpace=wrap;html=1;" parent="1" vertex="1">
          <mxGeometry x="670" y="300" width="120" height="40" as="geometry" />
        </mxCell>
        <mxCell id="DlLF5uZ7NsqH3WTy0vus-25" value="Завершить осмотр" style="rounded=1;whiteSpace=wrap;html=1;" parent="1" vertex="1">
          <mxGeometry x="435" y="720" width="120" height="40" as="geometry" />
        </mxCell>
        <mxCell id="DlLF5uZ7NsqH3WTy0vus-26" value="Поставить диагноз" style="rounded=1;whiteSpace=wrap;html=1;" parent="1" vertex="1">
          <mxGeometry x="340" y="310" width="120" height="30" as="geometry" />
        </mxCell>
        <mxCell id="DlLF5uZ7NsqH3WTy0vus-28" value="Внести новые данные в карту" style="rounded=1;whiteSpace=wrap;html=1;" parent="1" vertex="1">
          <mxGeometry x="340" y="370" width="120" height="40" as="geometry" />
        </mxCell>
        <mxCell id="DlLF5uZ7NsqH3WTy0vus-29" value="" style="endArrow=classic;html=1;exitX=0.5;exitY=1;exitDx=0;exitDy=0;entryX=0.5;entryY=0;entryDx=0;entryDy=0;" parent="1" source="DlLF5uZ7NsqH3WTy0vus-26" target="DlLF5uZ7NsqH3WTy0vus-28" edge="1">
          <mxGeometry width="50" height="50" relative="1" as="geometry">
            <mxPoint x="390" y="580" as="sourcePoint" />
            <mxPoint x="440" y="530" as="targetPoint" />
          </mxGeometry>
        </mxCell>
        <mxCell id="DlLF5uZ7NsqH3WTy0vus-30" value="" style="rhombus;whiteSpace=wrap;html=1;" parent="1" vertex="1">
          <mxGeometry x="380" y="440" width="40" height="40" as="geometry" />
        </mxCell>
        <mxCell id="DlLF5uZ7NsqH3WTy0vus-31" value="" style="endArrow=classic;html=1;exitX=0.5;exitY=1;exitDx=0;exitDy=0;entryX=0.5;entryY=0;entryDx=0;entryDy=0;" parent="1" source="DlLF5uZ7NsqH3WTy0vus-28" target="DlLF5uZ7NsqH3WTy0vus-30" edge="1">
          <mxGeometry width="50" height="50" relative="1" as="geometry">
            <mxPoint x="390" y="580" as="sourcePoint" />
            <mxPoint x="440" y="530" as="targetPoint" />
          </mxGeometry>
        </mxCell>
        <mxCell id="DlLF5uZ7NsqH3WTy0vus-34" value="" style="endArrow=classic;html=1;exitX=1;exitY=0.5;exitDx=0;exitDy=0;edgeStyle=orthogonalEdgeStyle;" parent="1" source="DlLF5uZ7NsqH3WTy0vus-30" target="DlLF5uZ7NsqH3WTy0vus-62" edge="1">
          <mxGeometry width="50" height="50" relative="1" as="geometry">
            <mxPoint x="390" y="580" as="sourcePoint" />
            <mxPoint x="590" y="370" as="targetPoint" />
          </mxGeometry>
        </mxCell>
        <mxCell id="DlLF5uZ7NsqH3WTy0vus-38" value="Записать пациента на повторный прием" style="rounded=1;whiteSpace=wrap;html=1;" parent="1" vertex="1">
          <mxGeometry x="530" y="567" width="120" height="35" as="geometry" />
        </mxCell>
        <mxCell id="DlLF5uZ7NsqH3WTy0vus-44" value="" style="endArrow=classic;html=1;exitX=0.5;exitY=1;exitDx=0;exitDy=0;entryX=0;entryY=0.5;entryDx=0;entryDy=0;" parent="1" source="DlLF5uZ7NsqH3WTy0vus-25" target="DlLF5uZ7NsqH3WTy0vus-45" edge="1">
          <mxGeometry width="50" height="50" relative="1" as="geometry">
            <mxPoint x="560" y="670" as="sourcePoint" />
            <mxPoint x="740" y="880" as="targetPoint" />
          </mxGeometry>
        </mxCell>
        <mxCell id="DlLF5uZ7NsqH3WTy0vus-45" value="" style="ellipse;html=1;shape=endState;fillColor=#000000;strokeColor=#000000;direction=south;" parent="1" vertex="1">
          <mxGeometry x="480" y="790" width="30" height="30" as="geometry" />
        </mxCell>
        <mxCell id="DlLF5uZ7NsqH3WTy0vus-46" value="" style="ellipse;fillColor=#000000;strokeColor=none;" parent="1" vertex="1">
          <mxGeometry x="385" y="50" width="30" height="30" as="geometry" />
        </mxCell>
        <mxCell id="DlLF5uZ7NsqH3WTy0vus-47" value="Осмотр пациента" style="text;html=1;resizable=0;autosize=1;align=center;verticalAlign=middle;points=[];rounded=0;" parent="1" vertex="1">
          <mxGeometry x="345" y="20" width="110" height="20" as="geometry" />
        </mxCell>
        <mxCell id="DlLF5uZ7NsqH3WTy0vus-49" value="" style="endArrow=classic;html=1;exitX=0.5;exitY=1;exitDx=0;exitDy=0;entryX=0.5;entryY=0;entryDx=0;entryDy=0;" parent="1" source="DlLF5uZ7NsqH3WTy0vus-46" target="DlLF5uZ7NsqH3WTy0vus-9" edge="1">
          <mxGeometry width="50" height="50" relative="1" as="geometry">
            <mxPoint x="520" y="130" as="sourcePoint" />
            <mxPoint x="570" y="80" as="targetPoint" />
          </mxGeometry>
        </mxCell>
        <mxCell id="DlLF5uZ7NsqH3WTy0vus-53" value="" style="endArrow=classic;html=1;edgeStyle=orthogonalEdgeStyle;exitX=0.5;exitY=1;exitDx=0;exitDy=0;" parent="1" source="DlLF5uZ7NsqH3WTy0vus-30" target="DlLF5uZ7NsqH3WTy0vus-54" edge="1">
          <mxGeometry width="50" height="50" relative="1" as="geometry">
            <mxPoint x="400" y="490" as="sourcePoint" />
            <mxPoint x="430" y="670" as="targetPoint" />
            <Array as="points">
              <mxPoint x="400" y="665" />
            </Array>
          </mxGeometry>
        </mxCell>
        <mxCell id="DlLF5uZ7NsqH3WTy0vus-54" value="" style="rhombus;whiteSpace=wrap;html=1;" parent="1" vertex="1">
          <mxGeometry x="480" y="650" width="30" height="30" as="geometry" />
        </mxCell>
        <mxCell id="DlLF5uZ7NsqH3WTy0vus-55" value="" style="endArrow=classic;html=1;entryX=0.5;entryY=0;entryDx=0;entryDy=0;exitX=0.5;exitY=1;exitDx=0;exitDy=0;edgeStyle=orthogonalEdgeStyle;" parent="1" source="DlLF5uZ7NsqH3WTy0vus-38" target="DlLF5uZ7NsqH3WTy0vus-54" edge="1">
          <mxGeometry width="50" height="50" relative="1" as="geometry">
            <mxPoint x="530" y="560" as="sourcePoint" />
            <mxPoint x="580" y="510" as="targetPoint" />
          </mxGeometry>
        </mxCell>
        <mxCell id="DlLF5uZ7NsqH3WTy0vus-56" value="" style="endArrow=classic;html=1;exitX=0.75;exitY=1;exitDx=0;exitDy=0;entryX=1;entryY=0.5;entryDx=0;entryDy=0;edgeStyle=orthogonalEdgeStyle;" parent="1" source="DlLF5uZ7NsqH3WTy0vus-22" target="DlLF5uZ7NsqH3WTy0vus-54" edge="1">
          <mxGeometry width="50" height="50" relative="1" as="geometry">
            <mxPoint x="530" y="560" as="sourcePoint" />
            <mxPoint x="680" y="690" as="targetPoint" />
          </mxGeometry>
        </mxCell>
        <mxCell id="DlLF5uZ7NsqH3WTy0vus-57" value="" style="endArrow=classic;html=1;exitX=0.5;exitY=1;exitDx=0;exitDy=0;" parent="1" source="DlLF5uZ7NsqH3WTy0vus-54" target="DlLF5uZ7NsqH3WTy0vus-25" edge="1">
          <mxGeometry width="50" height="50" relative="1" as="geometry">
            <mxPoint x="530" y="660" as="sourcePoint" />
            <mxPoint x="580" y="610" as="targetPoint" />
          </mxGeometry>
        </mxCell>
        <mxCell id="DlLF5uZ7NsqH3WTy0vus-59" value="&lt;span&gt;Жалобы от пациента отсутствуют&lt;/span&gt;" style="text;html=1;resizable=0;autosize=1;align=center;verticalAlign=middle;points=[];rounded=0;" parent="1" vertex="1">
          <mxGeometry x="525" y="180" width="200" height="20" as="geometry" />
        </mxCell>
        <mxCell id="DlLF5uZ7NsqH3WTy0vus-61" value="&lt;span&gt;Требуется повторный осмотр&lt;/span&gt;" style="text;html=1;resizable=0;autosize=1;align=center;verticalAlign=middle;points=[];rounded=0;" parent="1" vertex="1">
          <mxGeometry x="435" y="440" width="180" height="20" as="geometry" />
        </mxCell>
        <mxCell id="DlLF5uZ7NsqH3WTy0vus-62" value="Записать пациента к специалисту на сдачу анализов" style="rounded=1;whiteSpace=wrap;html=1;" parent="1" vertex="1">
          <mxGeometry x="525" y="500" width="130" height="40" as="geometry" />
        </mxCell>
        <mxCell id="DlLF5uZ7NsqH3WTy0vus-63" value="" style="endArrow=classic;html=1;exitX=0.5;exitY=1;exitDx=0;exitDy=0;entryX=0.5;entryY=0;entryDx=0;entryDy=0;" parent="1" source="DlLF5uZ7NsqH3WTy0vus-62" target="DlLF5uZ7NsqH3WTy0vus-38" edge="1">
          <mxGeometry width="50" height="50" relative="1" as="geometry">
            <mxPoint x="530" y="540" as="sourcePoint" />
            <mxPoint x="580" y="490" as="targetPoint" />
          </mxGeometry>
        </mxCell>
        <mxCell id="BodO-AUtTJxvCJr4Ar1S-1" value="&lt;span style=&quot;text-align: center&quot;&gt;&lt;font style=&quot;font-size: 12px&quot;&gt;Жалобы от пациента присутствуют&lt;/font&gt;&lt;/span&gt;" style="rounded=1;whiteSpace=wrap;html=1;sketch=0;align=left;shadow=0;glass=0;strokeColor=none;fillColor=none;" vertex="1" parent="1">
          <mxGeometry x="310" y="230" width="80" height="60" as="geometry" />
        </mxCell>
        <mxCell id="BodO-AUtTJxvCJr4Ar1S-2" value="&lt;span style=&quot;text-align: center&quot;&gt;&lt;font style=&quot;font-size: 12px&quot;&gt;Повторный осмотр не требуется&lt;/font&gt;&lt;/span&gt;" style="rounded=1;whiteSpace=wrap;html=1;shadow=0;glass=0;sketch=0;fillColor=none;align=left;strokeColor=none;" vertex="1" parent="1">
          <mxGeometry x="320" y="525" width="60" height="60" as="geometry" />
        </mxCell>
      </root>
    </mxGraphModel>
  </diagram>
</mxfile>
